# xmcd
#
# Track frame offsets: 
#        150
#        22447
#        41686
#        59753
#        81088
#        99947
#        119274
#        132873
#        153592
#        182479
#        199294
#        215282
#        242952
#        262042
#        284526
#        302444
#        323459
#
# Disc length: 4612 seconds
#
# Revision: 1
# Processed by: cddbd v1.5.2PL0 Copyright (c) Steve Scherf et al.
# Submitted via: ExactAudioCopy v1.3
#
DISCID=f8120211
DTITLE=Various Artist - Light Mellow Beams
DYEAR=2015
DGENRE=AOR
TTITLE0=角松敏生 - BEAMS
TTITLE1=佐藤 博 - SHINY LADY
TTITLE2=SOAP - ルームメイト
TTITLE3=藤本健一 - 朝の別れ
TTITLE4=岸田智史 - サンシャイン・スーパーマン
TTITLE5=小林泉美 - マイ・ビーチ・サンバ
TTITLE6=ハイ・ファイ・セット - 風の街 (Single Version)
TTITLE7=EPO - 身代わりのバディー
TTITLE8=SENTIMENTAL CITY ROMANCE - ロマンス航路
TTITLE9=ソニア・ローザ - 東京イン・ザ・ブルー
TTITLE10=須藤薫 - 心の背景
TTITLE11=MIXNUTS - 幸せの赤いベンチ
TTITLE12=NASA - SEXY SPICY BABY
TTITLE13=羽根田征子 - MILKY WAY
TTITLE14=白井貴子 - ピローケースにさようなら
TTITLE15=南 佳孝 - Winter Square
TTITLE16=大滝詠一 - ペパーミント・ブルー
EXTD=
EXTT0=
EXTT1=
EXTT2=
EXTT3=
EXTT4=
EXTT5=
EXTT6=
EXTT7=
EXTT8=
EXTT9=
EXTT10=
EXTT11=
EXTT12=
EXTT13=
EXTT14=
EXTT15=
EXTT16=
PLAYORDER=
